# File created by Blade
# Date/Time:  Tue Jan 27 19:05:11 2015
#---------------------------------------------------------
:version 1.10
:name HOM
:units
  mass 1.0
  length 1.000000
  angle deg
:documentation
     Acclaim Skeleton File
:root
   axis xyz
   order TX TY TZ RX RY RZ
   position 0.000000 0.000000 0.000000
   orientation 0 0 0
:bonedata
   begin
      id 1
      name Spine_dum
      direction 0.000000 1.000000 0.000000
      length 5.195262
      axis 0.0 0.0 0.0 xyz
   end
   begin
      id 2
      name LeftUpLeg_dum
      direction 1.000000 0.000000 0.000000
      length 3.351363
      axis 0.0 0.0 0.0 xyz
   end
   begin
      id 3
      name RightUpLeg_dum
      direction -1.000000 0.000000 0.000000
      length 3.351363
      axis 0.0 0.0 0.0 xyz
   end
   begin
      id 4
      name Spine
      direction 0.000000 1.000000 0.000000
      length 0.000000
      axis 0.0 0.0 0.0 xyz
      dof rx ry rz
   end
   begin
      id 5
      name Spine_dum1
      direction 0.000000 1.000000 0.000000
      length 15.653875
      axis 0.0 0.0 0.0 xyz
   end
   begin
      id 6
      name Spine_dum2
      direction 0.000000 1.000000 0.000000
      length 10.329768
      axis 0.0 0.0 0.0 xyz
   end
   begin
      id 7
      name Spine_dum3
      direction 0.000000 1.000000 0.000000
      length 10.329768
      axis 0.0 0.0 0.0 xyz
   end
   begin
      id 8
      name Head
      direction 0.000000 1.000000 0.000000
      length 4.527550
      axis 0.0 0.0 0.0 xyz
      dof rx ry rz
   end
   begin
      id 9
      name LeftShoulder
      direction 1.000000 0.000000 0.000000
      length 6.996006
      axis 0.0 0.0 -90.0 xyz
      dof rx ry rz
   end
   begin
      id 10
      name LeftArm
      direction 1.000000 0.000000 0.000000
      length 10.209302
      axis 0.0 0.0 -90.0 xyz
      dof rx ry rz
   end
   begin
      id 11
      name LeftForeArm
      direction 1.000000 0.000000 0.000000
      length 8.563163
      axis 0.0 0.0 -90.0 xyz
      dof ry rz rx
   end
   begin
      id 12
      name LeftHand
      direction 0.000000 0.000000 0.000000
      length 0.000000
      axis 0.0 0.0 -90.0 xyz
      dof rx ry rz
   end
   begin
      id 13
      name LeftHand_dum1
      direction 0.000000 0.000000 0.000000
      length 0.000000
      axis 0.0 0.0 -90.0 xyz
   end
   begin
      id 14
      name LeftHand_dum2
      direction 1.000000 0.000000 0.000000
      length 3.937000
      axis 0.0 0.0 -90.0 xyz
   end
   begin
      id 15
      name LeftHandThumb1
      direction 0.000000 0.000000 1.000000
      length 3.937000
      axis 0.0 0.0 -90.0 xyz
      dof rx rz ry
   end
   begin
      id 16
      name RightShoulder
      direction -1.000000 0.000000 0.000000
      length 6.996006
      axis 0.0 0.0 90.0 xyz
      dof rx ry rz
   end
   begin
      id 17
      name RightArm
      direction -1.000000 0.000000 0.000000
      length 10.209302
      axis 0.0 0.0 90.0 xyz
      dof rx ry rz
   end
   begin
      id 18
      name RightForeArm
      direction -1.000000 0.000000 0.000000
      length 8.563163
      axis 0.0 0.0 90.0 xyz
      dof ry rz rx
   end
   begin
      id 19
      name RightHand
      direction 0.000000 0.000000 0.000000
      length 0.000000
      axis 0.0 0.0 90.0 xyz
      dof rx ry rz
   end
   begin
      id 20
      name RightHand_dum1
      direction 0.000000 0.000000 0.000000
      length 0.000000
      axis 0.0 0.0 90.0 xyz
   end
   begin
      id 21
      name RightHand_dum2
      direction -1.000000 0.000000 0.000000
      length 3.937000
      axis 0.0 0.0 90.0 xyz
   end
   begin
      id 22
      name RightHandThumb1
      direction 0.000000 0.000000 1.000000
      length 3.937000
      axis 0.0 0.0 90.0 xyz
      dof rx rz ry
   end
   begin
      id 23
      name LeftUpLeg
      direction 0.000000 -1.000000 0.000000
      length 16.346831
      axis 0.0 0.0 0.0 xyz
      dof rx ry rz
   end
   begin
      id 24
      name LeftLeg
      direction 0.000000 -1.000000 0.000000
      length 13.959795
      axis 0.0 0.0 0.0 xyz
      dof rx ry rz
   end
   begin
      id 25
      name LeftFoot
      direction 0.000000 -0.258819 0.965926
      length 5.165550
      axis 15.0 0.0 0.0 xyz
      dof rx ry rz
   end
   begin
      id 26
      name LeftToeBase
      direction 0.000000 0.000000 1.000000
      length 2.952750
      axis 0.0 0.0 0.0 xyz
      dof rx ry rz
   end
   begin
      id 27
      name RightUpLeg
      direction 0.000000 -1.000000 0.000000
      length 16.346831
      axis 0.0 0.0 0.0 xyz
      dof rx ry rz
   end
   begin
      id 28
      name RightLeg
      direction 0.000000 -1.000000 0.000000
      length 13.959795
      axis 0.0 0.0 0.0 xyz
      dof rx ry rz
   end
   begin
      id 29
      name RightFoot
      direction 0.000000 -0.258819 0.965926
      length 5.165550
      axis 15.0 0.0 0.0 xyz
      dof rx ry rz
   end
   begin
      id 30
      name RightToeBase
      direction 0.000000 0.000000 1.000000
      length 2.952750
      axis 0.0 0.0 0.0 xyz
      dof rx ry rz
   end
:hierarchy
   begin
      root Spine_dum LeftUpLeg_dum RightUpLeg_dum
      Spine_dum Spine
      LeftUpLeg_dum LeftUpLeg
      RightUpLeg_dum RightUpLeg
      Spine Spine_dum1 Spine_dum2 Spine_dum3
      Spine_dum1 Head
      Spine_dum2 LeftShoulder
      Spine_dum3 RightShoulder
      LeftShoulder LeftArm
      LeftArm LeftForeArm
      LeftForeArm LeftHand
      LeftHand LeftHand_dum1 LeftHand_dum2
      LeftHand_dum1 LeftHandThumb1
      RightShoulder RightArm
      RightArm RightForeArm
      RightForeArm RightHand
      RightHand RightHand_dum1 RightHand_dum2
      RightHand_dum1 RightHandThumb1
      LeftUpLeg LeftLeg
      LeftLeg LeftFoot
      LeftFoot LeftToeBase
      RightUpLeg RightLeg
      RightLeg RightFoot
      RightFoot RightToeBase
   end

# File created by Blade
# Date/Time:  Tue Jan 27 19:05:02 2015
# Frame Rate: 120.000 fps
#------------------------------------------------------
:FULLY-SPECIFIED
:DEGREES
123
root -5.863350 31.775869 -4.984029 4.304157 5.034063 2.587966
Spine -6.100667 -6.602934 -2.513187
Head 11.577627 10.475898 2.521469
LeftShoulder -16.671655 13.268863 22.503644
LeftArm 22.855338 -34.444754 -34.505803
LeftForeArm -30.166851 -0.000000 7.781196
LeftHand -12.517594 -0.000000 5.374543
LeftHandThumb1 -26.253704 0.000000 33.147579
RightShoulder -11.690115 5.220534 -34.464556
RightArm 17.809044 11.892050 36.582344
RightForeArm -23.875772 -0.000000 5.400110
RightHand -14.442564 -0.000000 16.554738
RightHandThumb1 -24.326973 -0.000000 -32.862282
LeftUpLeg 0.003057 -5.963510 -4.668115
LeftLeg 1.995078 -0.000000 -0.000000
LeftFoot -17.959765 17.014817 -14.201175
LeftToeBase 11.112499 -0.000000 -0.000000
RightUpLeg 2.367192 2.008021 -0.792981
RightLeg -2.825416 -0.000000 0.000000
RightFoot -15.198423 -10.274497 8.440756
RightToeBase 4.078759 -0.000000 -0.000000
124
root -5.862065 31.775564 -4.981437 4.303350 5.036055 2.589289
Spine -6.111729 -6.592888 -2.514141
Head 11.625894 10.435152 2.554996
LeftShoulder -16.676098 13.282514 22.497905
LeftArm 22.867763 -34.462477 -34.521351
LeftForeArm -30.158036 -0.000000 7.797610
LeftHand -12.497216 -0.000000 5.373939
LeftHandThumb1 -26.253704 0.000000 33.147579
RightShoulder -11.695114 5.198809 -34.450774
RightArm 17.840302 11.881592 36.595858
RightForeArm -23.868888 0.000000 5.397772
RightHand -14.419173 0.000000 16.594352
RightHandThumb1 -24.326973 -0.000000 -32.862282
LeftUpLeg 0.002725 -5.938775 -4.673526
LeftLeg 2.005346 -0.000000 -0.000000
LeftFoot -17.974788 16.997566 -14.209181
LeftToeBase 11.127017 -0.000000 -0.000000
RightUpLeg 2.370079 2.013614 -0.794226
RightLeg -2.817469 -0.000000 0.000000
RightFoot -15.216881 -10.290590 8.447411
RightToeBase 4.103607 -0.000000 -0.000000
125
root -5.861896 31.775263 -4.978555 4.298392 5.042585 2.586422
Spine -6.116295 -6.585144 -2.518168
Head 11.670548 10.381888 2.610239
LeftShoulder -16.676004 13.276759 22.505195
LeftArm 22.858683 -34.453249 -34.520895
LeftForeArm -30.145317 -0.000000 7.812260
LeftHand -12.498443 -0.000000 5.372327
LeftHandThumb1 -26.253704 0.000000 33.147579
RightShoulder -11.682598 5.164024 -34.436161
RightArm 17.848311 11.823871 36.591702
RightForeArm -23.775036 -0.000000 5.392896
RightHand -14.387380 0.000000 16.597665
RightHandThumb1 -24.326973 -0.000000 -32.862282
LeftUpLeg 0.012415 -5.934120 -4.669829
LeftLeg 2.007991 -0.000000 -0.000000
LeftFoot -17.971434 16.979214 -14.185661
LeftToeBase 11.115825 -0.000000 -0.000000
RightUpLeg 2.380336 2.012883 -0.791040
RightLeg -2.814009 -0.000000 0.000000
RightFoot -15.227789 -10.288467 8.454745
RightToeBase 4.118594 -0.000000 -0.000000
126
root -5.859819 31.775267 -4.975208 4.288490 5.046292 2.588909
Spine -6.118740 -6.578517 -2.517921
Head 11.723228 10.355896 2.639424
LeftShoulder -16.689528 13.281048 22.486867
LeftArm 22.890996 -34.469909 -34.526869
LeftForeArm -30.122474 -0.000000 7.791917
LeftHand -12.491644 -0.000000 5.368323
LeftHandThumb1 -26.253704 0.000000 33.147579
RightShoulder -11.685356 5.164873 -34.425001
RightArm 17.863385 11.779330 36.593789
RightForeArm -23.732276 -0.000000 5.397619
RightHand -14.365637 -0.000000 16.607937
RightHandThumb1 -24.326973 -0.000000 -32.862282
LeftUpLeg 0.030740 -5.938874 -4.678168
LeftLeg 2.003419 -0.000000 -0.000000
LeftFoot -17.975345 16.997069 -14.182871
LeftToeBase 11.151543 -0.000000 -0.000000
RightUpLeg 2.397582 2.020418 -0.796531
RightLeg -2.813114 -0.000000 0.000000
RightFoot -15.243629 -10.286416 8.500620
RightToeBase 4.127918 -0.000000 -0.000000
127
root -5.859228 31.775021 -4.972685 4.286750 5.057707 2.590099
Spine -6.130305 -6.582196 -2.520062
Head 11.783067 10.307209 2.674425
LeftShoulder -16.682986 13.301808 22.483584
LeftArm 22.891107 -34.501826 -34.540848
LeftForeArm -30.091864 -0.000000 7.806305
LeftHand -12.476726 -0.000000 5.415809
LeftHandThumb1 -26.253704 0.000000 33.147579
RightShoulder -11.681940 5.153317 -34.410080
RightArm 17.883441 11.742230 36.603026
RightForeArm -23.725878 -0.000000 5.399038
RightHand -14.351875 -0.000000 16.603183
RightHandThumb1 -24.326973 -0.000000 -32.862282
LeftUpLeg 0.033136 -5.955925 -4.679764
LeftLeg 2.013941 -0.000000 -0.000000
LeftFoot -17.979095 16.998301 -14.182717
LeftToeBase 11.116905 -0.000000 -0.000000
RightUpLeg 2.406865 2.026111 -0.797306
RightLeg -2.815883 -0.000000 0.000000
RightFoot -15.250309 -10.303817 8.495167
RightToeBase 4.130549 -0.000000 -0.000000
128
root -5.858329 31.775033 -4.970034 4.289498 5.056215 2.588245
Spine -6.149509 -6.582384 -2.516290
Head 11.848316 10.276153 2.704203
LeftShoulder -16.693054 13.293265 22.478322
LeftArm 22.880333 -34.511175 -34.541794
LeftForeArm -30.055755 -0.000000 7.820899
LeftHand -12.494673 -0.000000 5.425330
LeftHandThumb1 -26.253704 0.000000 33.147579
RightShoulder -11.672074 5.178254 -34.399778
RightArm 17.880155 11.655116 36.599055
RightForeArm -23.691125 -0.000000 5.417047
RightHand -14.446811 -0.000000 16.566078
RightHandThumb1 -24.326973 -0.000000 -32.862282
LeftUpLeg 0.033341 -5.928482 -4.679766
LeftLeg 2.017136 -0.000000 -0.000000
LeftFoot -17.985686 16.971394 -14.185651
LeftToeBase 11.118768 -0.000000 -0.000000
RightUpLeg 2.406914 2.027818 -0.797271
RightLeg -2.812892 -0.000000 0.000000
RightFoot -15.254213 -10.300598 8.502317
RightToeBase 4.163211 -0.000000 -0.000000
129
root -5.857883 31.775263 -4.967291 4.283999 5.055190 2.586574
Spine -6.154414 -6.573176 -2.521351
Head 11.903021 10.235831 2.739032
LeftShoulder -16.703505 13.317226 22.458841
LeftArm 22.907340 -34.529986 -34.534724
LeftForeArm -30.067952 -0.000000 7.809942
LeftHand -12.508006 -0.000000 5.446100
LeftHandThumb1 -26.253704 0.000000 33.147579
RightShoulder -11.672663 5.171046 -34.373776
RightArm 17.890912 11.665823 36.619275
RightForeArm -23.700261 -0.000000 5.444910
RightHand -14.404036 -0.000000 16.605574
RightHandThumb1 -24.326973 -0.000000 -32.862282
LeftUpLeg 0.045439 -5.935460 -4.680640
LeftLeg 2.012518 -0.000000 -0.000000
LeftFoot -17.978833 16.986464 -14.175374
LeftToeBase 11.103128 -0.000000 -0.000000
RightUpLeg 2.416414 2.040720 -0.794400
RightLeg -2.811947 -0.000000 0.000000
RightFoot -15.238060 -10.321990 8.479064
RightToeBase 4.051391 -0.000000 -0.000000
130
root -5.856553 31.774998 -4.964702 4.284147 5.053747 2.587850
Spine -6.166465 -6.563982 -2.523484
Head 11.954172 10.199496 2.762615
LeftShoulder -16.701253 13.309395 22.462179
LeftArm 22.891949 -34.548090 -34.542903
LeftForeArm -30.029855 0.000000 7.823405
LeftHand -12.499513 -0.000000 5.446733
LeftHandThumb1 -26.253704 0.000000 33.147579
RightShoulder -11.671647 5.156576 -34.352842
RightArm 17.903694 11.668823 36.634165
RightForeArm -23.696134 0.000000 5.470191
RightHand -14.334356 -0.000000 16.657147
RightHandThumb1 -24.326973 -0.000000 -32.862282
LeftUpLeg 0.049878 -5.935858 -4.682720
LeftLeg 2.013415 -0.000000 -0.000000
LeftFoot -17.978715 16.978850 -14.168834
LeftToeBase 11.057826 -0.000000 -0.000000
RightUpLeg 2.416996 2.040120 -0.796970
RightLeg -2.800929 -0.000000 0.000000
RightFoot -15.246796 -10.327503 8.456577
RightToeBase 4.060737 -0.000000 -0.000000
131
root -5.855438 31.774973 -4.962414 4.284155 5.052357 2.586155
Spine -6.181015 -6.558715 -2.520561
Head 12.014347 10.162860 2.780877
LeftShoulder -16.709771 13.327936 22.448060
LeftArm 22.902167 -34.567856 -34.547563
LeftForeArm -30.042902 0.000000 7.828773
LeftHand -12.485874 -0.000000 5.451023
LeftHandThumb1 -26.253704 0.000000 33.147579
RightShoulder -11.672807 5.170962 -34.345014
RightArm 17.906620 11.660333 36.665198
RightForeArm -23.715666 -0.000000 5.495801
RightHand -14.415418 -0.000000 16.636225
RightHandThumb1 -24.326973 -0.000000 -32.862282
LeftUpLeg 0.050205 -5.926424 -4.684175
LeftLeg 2.022626 -0.000000 -0.000000
LeftFoot -17.991316 16.972738 -14.180098
LeftToeBase 11.109522 -0.000000 -0.000000
RightUpLeg 2.420227 2.043725 -0.798104
RightLeg -2.797628 -0.000000 0.000000
RightFoot -15.279877 -10.314690 8.509831
RightToeBase 4.168644 -0.000000 -0.000000
132
root -5.854645 31.774782 -4.959297 4.282172 5.052667 2.585540
Spine -6.192943 -6.550879 -2.524446
Head 12.073485 10.127984 2.811915
LeftShoulder -16.704474 13.320965 22.451195
LeftArm 22.885515 -34.587847 -34.546499
LeftForeArm -30.034998 -0.000000 7.838859
LeftHand -12.489935 -0.000000 5.445355
LeftHandThumb1 -26.253704 0.000000 33.147579
RightShoulder -11.673311 5.175324 -34.324128
RightArm 17.911933 11.650660 36.681678
RightForeArm -23.719479 -0.000000 5.502520
RightHand -14.403957 -0.000000 16.644516
RightHandThumb1 -24.326973 -0.000000 -32.862282
LeftUpLeg 0.053875 -5.907999 -4.685227
LeftLeg 2.031673 -0.000000 -0.000000
LeftFoot -18.009822 16.947535 -14.195174
LeftToeBase 11.138307 -0.000000 -0.000000
RightUpLeg 2.429035 2.056697 -0.796983
RightLeg -2.800598 -0.000000 0.000000
RightFoot -15.280004 -10.327856 8.502328
RightToeBase 4.142143 -0.000000 -0.000000
